{"title":"12 Years a Slave CamRip.mp4","uid":9164436,"size":637878142,"categoryP":"video","categoryS":"movies","magnet":"?xt=urn:btih:c65934f9436fdeaa454fdb3031e12a9cc060f6f2&amp;dn=12+Years+a+Slave+CamRip.mp4&amp;tr=udp%3A%2F%2Ftracker.openbittorrent.com%3A80&amp;tr=udp%3A%2F%2Fopen.demonii.com%3A1337&amp;tr=udp%3A%2F%2Ftracker.coppersurfer.tk%3A6969&amp;tr=udp%3A%2F%2Fexodus.desync.com%3A6969","seeders":1,"leechers":0,"uploader":"globeplus","files":-1,"time":1383942427,"description":"12 Years a Slave CamRip.mp4\n\n\nFormat                                   : MPEG-4\nFormat profile                           : Base Media\nCodec ID                                 : isom\nFile size                                : 608 MiB\nDuration                                 : 2h 6mn\nOverall bit rate                         : 673 Kbps\nWriting application                      : Lavf54.32.101\n\nVideo\n\nID                                       : 1\nFormat                                   : AVC\nFormat/Info                              : Advanced Video Codec\nFormat profile                           : &lt;a class=&quot;__cf_email__&quot; href=&quot;/cdn-cgi/l/email-protection&quot; data-cfemail=&quot;7931101e1139354a5749&quot;&gt;[email&amp;#160;protected]&lt;/a&gt;&lt;script cf-hash='f9e31' type=&quot;text/javascript&quot;&gt;\n/* &lt;![CDATA[ */!function(){try{var t=&quot;currentScript&quot;in document?document.currentScript:function(){for(var t=document.getElementsByTagName(&quot;script&quot;),e=t.length;e--;)if(t[e].getAttribute(&quot;cf-hash&quot;))return t[e]}();if(t&amp;&amp;t.previousSibling){var e,r,n,i,c=t.previousSibling,a=c.getAttribute(&quot;data-cfemail&quot;);if(a){for(e=&quot;&quot;,r=parseInt(a.substr(0,2),16),n=2;a.length-n;n+=2)i=parseInt(a.substr(n,2),16)^r,e+=String.fromCharCode(i);e=document.createTextNode(e),c.parentNode.replaceChild(e,c)}}}catch(u){}}();/* ]]&gt; */&lt;/script&gt;\nFormat settings, CABAC                   : Yes\nFormat settings, ReFrames                : 4 frames\nCodec ID                                 : avc1\nCodec ID/Info                            : Advanced Video Coding\nDuration                                 : 2h 6mn\nBit rate mode                            : Variable\nBit rate                                 : 567 Kbps\nWidth                                    : 720 pixels\nHeight                                   : 384 pixels\nDisplay aspect ratio                     : 1.85:1\nFrame rate mode                          : Constant\nFrame rate                               : 29.970 fps\nColor space                              : YUV\nChroma subsampling                       : 4:2:0\nBit depth                                : 8 bits\nScan type                                : Progressive\nBits/(Pixel*Frame)                       : 0.068\nStream size                              : 512 MiB (84%)\nWriting library                          : x264 core 128 r2216 198a7ea\n\n\nAudio\n\nID                                       : 2\nFormat                                   : AAC\nFormat/Info                              : Advanced Audio Codec\nFormat profile                           : LC\nCodec ID                                 : 40\nDuration                                 : 2h 6mn\nBit rate mode                            : Constant\nBit rate                                 : 96.0 Kbps\nChannel(s)                               : 2 channels\nChannel positions                        : Front: L R\nSampling rate                            : 44.1 KHz\nCompression mode                         : Lossy\nStream size                              : 86.6 MiB (14%)\n\n\nPlot\n\nIn 1841, Solomon Northup (Ejiofor) is a free black man living with his wife and two children in Saratoga Springs, New York. He makes his living playing the violin. One day he is lured into a lucrative touring gig by a pair of men (McNairy and Killam). After a night out in Washington, D.C. with the two men, Northup awakens to find himself chained to the floor. In shock of what has happened, Northup realizes he has been drugged and sold into slavery.\n\nNow under the name of Platt, Northup is transported by ferry to New Orleans, where he is purchased as a slave by plantation owner William Ford (Cumberbatch). Enduring his new life, Northup stays on good terms with Ford as he assists him by engineering a waterway for transporting materials more swiftly. Northup's ability to play the violin is also discovered, with Ford providing him with a violin. Because of his success on the plantation, overseer John Tibeats (Dano) becomes jealous of Northup leading to many quarrels between the two.\n\n\n\n\n* enjoy ...\n\n","torrent":{"xt":"urn:btih:c65934f9436fdeaa454fdb3031e12a9cc060f6f2","amp;dn":"12+Years+a+Slave+CamRip.mp4","amp;tr":["udp%3A%2F%2Ftracker.openbittorrent.com%3A80","udp%3A%2F%2Fopen.demonii.com%3A1337","udp%3A%2F%2Ftracker.coppersurfer.tk%3A6969","udp%3A%2F%2Fexodus.desync.com%3A6969"],"infoHash":"c65934f9436fdeaa454fdb3031e12a9cc060f6f2","infoHashBuffer":{"type":"Buffer","data":[198,89,52,249,67,111,222,170,69,79,219,48,49,225,42,156,192,96,246,242]},"announce":[],"urlList":[]}}